<svg width="70" height="61" viewBox="0 0 70 61" fill="none" xmlns="http://www.w3.org/2000/svg">
<rect width="70" height="61" rx="20" fill="#FDF300"/>
<ellipse cx="35.5" cy="28" rx="24.5" ry="19" fill="black"/>
<path d="M17.8661 52.2332L21.0923 38.1851L29.5206 43.752L17.8661 52.2332Z" fill="black"/>
<path d="M17.4972 24.593V22.8182H25.8594V24.593H22.7422V33H20.6143V24.593H17.4972ZM27.7473 33H25.4405L28.9554 22.8182H31.7296L35.2395 33H32.9327L30.3823 25.1449H30.3027L27.7473 33ZM27.6032 28.9979H33.052V30.6783H27.6032V28.9979ZM36.465 33V22.8182H38.6177V31.2251H42.9828V33H36.465ZM44.4084 33V22.8182H46.5611V27.3075H46.6953L50.3594 22.8182H52.9396L49.1612 27.3771L52.9844 33H50.4091L47.62 28.8139L46.5611 30.1065V33H44.4084Z" fill="#FDF300"/>
</svg>
